<?xml version="1.0" encoding="UTF-8" standalone="no"?>
<svg
   xmlns:dc="http://purl.org/dc/elements/1.1/"
   xmlns:cc="http://creativecommons.org/ns#"
   xmlns:rdf="http://www.w3.org/1999/02/22-rdf-syntax-ns#"
   xmlns:svg="http://www.w3.org/2000/svg"
   xmlns="http://www.w3.org/2000/svg"
   xmlns:sodipodi="http://sodipodi.sourceforge.net/DTD/sodipodi-0.dtd"
   xmlns:inkscape="http://www.inkscape.org/namespaces/inkscape"
   width="100%"
   height="100%"
   viewBox="0 0 600 1200"
   version="1.1"
   xml:space="preserve"
   style="fill-rule:evenodd;clip-rule:evenodd;stroke-linecap:round;stroke-linejoin:round;stroke-miterlimit:1;"
   id="svg4683"
   inkscape:version="0.91 r13725"
   sodipodi:docname="max_sad.svg"><metadata
     id="metadata4731"><rdf:RDF><cc:Work
         rdf:about=""><dc:format>image/svg+xml</dc:format><dc:type
           rdf:resource="http://purl.org/dc/dcmitype/StillImage" /><dc:title></dc:title></cc:Work></rdf:RDF></metadata><sodipodi:namedview
     pagecolor="#ffffff"
     bordercolor="#666666"
     borderopacity="1"
     objecttolerance="10"
     gridtolerance="10"
     guidetolerance="10"
     inkscape:pageopacity="0"
     inkscape:pageshadow="2"
     inkscape:window-width="1059"
     inkscape:window-height="791"
     id="namedview4729"
     showgrid="false"
     inkscape:zoom="0.19666667"
     inkscape:cx="300"
     inkscape:cy="600"
     inkscape:window-x="65"
     inkscape:window-y="24"
     inkscape:window-maximized="0"
     inkscape:current-layer="Layer1" /><g
     id="Layer1"><path
       id="Lower Body"
       d="M129.503,959.475c-13.219,66.001 3.366,190.41 14.399,194.51c131.638,48.926 274.445,38.048 352.217,-5.16c9.178,-5.099 22.651,-85.02 14.806,-191.914c-122.754,45.95 -240.303,46.283 -381.422,2.564Z"
       style="fill:url(#_Radial1);stroke-width:14px;stroke:#000;" /><path
       id="Upper Body"
       d="M177.997,603.316c-14.597,-5.234 -121.997,26.492 -128.359,54.924c-14.091,62.971 -9.247,253.201 21.721,272.042c87.073,52.976 299.236,100.929 474.011,8.308c9.63,-5.103 35.284,-143.75 18.683,-285.63c-2.051,-17.534 -153.404,-60.944 -165.573,-52.96l-220.483,3.316Z"
       style="fill:url(#_Radial2);stroke-width:14px;stroke:#000;" /><path
       id="Face"
       d="M481.826,306.957c-16.882,22.738 -345.343,9.837 -350.021,15.728c-12.957,16.317 -63.079,318.258 163.316,324.81c264.684,7.66 194.909,-351.588 186.705,-340.538Z"
       style="fill:url(#_Linear3);stroke-width:14px;stroke:#000;" /><path
       id="Cowboy Hat"
       d="M26.321,244.339c-9.422,1.695 -3.68,74.658 138.149,119.504c186.954,59.115 406.062,-50.058 423.699,-161.545c0.793,-5.013 -9.8,-4.772 -26.63,-2.163c-35.169,5.451 -70.84,22.233 -70.997,18.064c-11.689,-310.315 -179.488,-164.389 -193.935,-162.013c-8.429,1.386 -28.473,-33.91 -71.056,-28.655c-122.698,15.143 -91.813,212.808 -95.239,212.912c-22.761,0.688 -54.907,-4.938 -103.991,3.896Z"
       style="fill:url(#_Radial4);stroke-width:14px;stroke:#000;" /><path
       id="Right Eye"
       d="M388.813,404.132c14.132,0.129 25.476,14.315 25.318,31.658c-0.159,17.344 -11.761,31.32 -25.893,31.191c-14.132,-0.129 -25.476,-14.315 -25.318,-31.659c0.159,-17.344 11.761,-31.319 25.893,-31.19Z"
       style="fill:#000;stroke-width:14px;stroke-miterlimit:1.41421;stroke:#000;" /><path
       id="Left Eye"
       d="M218.176,404.131c14.132,-0.113 25.719,13.875 25.859,31.219c0.14,17.344 -11.22,31.517 -25.352,31.631c-14.132,0.114 -25.719,-13.874 -25.859,-31.218c-0.14,-17.344 11.22,-31.518 25.352,-31.632Z"
       style="fill:#000;stroke-width:14px;stroke-miterlimit:1.41421;stroke:#000;" /><path
       id="Nose"
       d="M269.399,492.059c9.401,-10.871 32.981,-33.859 63.263,-6.015"
       style="fill:none;stroke-width:14px;stroke:#000;" /><path
       id="Smile"
       d="m 404.08761,569.21275 c -2.8333,1.47108 -14.28913,7.12179 -25.51645,18.10181 -13.45581,13.15944 -19.68214,25.20877 -19.79326,25.10987 -0.12264,-0.10992 19.25238,-28.79132 19.25238,-28.79132 0,0 -33.81719,-22.36796 -76.21184,-22.01934 -42.39464,0.34736 -77.67827,25.99377 -77.0787,25.01592 9.18227,-14.97668 31.48493,-43.80014 77.0787,-43.79396 45.59377,0.005 70.62805,36.80071 77.53887,39.40417 l 24.7303,-13.02715 z"
       style="fill:#000000;stroke:#000000;stroke-width:15.93665504px;stroke-miterlimit:1.41420996"
       inkscape:connector-curvature="0" /><path
       id="Chest Line"
       d="M51.781,653.17c85.344,46.954 184.366,74.643 262.959,71.331c143.28,-6.04 221.746,-55.362 242.671,-70.397"
       style="fill:none;stroke-width:14px;stroke:#000;" /><path
       d="M310.437,48.645c-13.866,8.344 -31.692,19.34 -55.016,44.002"
       style="fill:none;stroke-width:14px;stroke-miterlimit:1.41421;stroke:#000;"
       id="path4695" /><path
       d="M588.187,200.135c-17.179,25.885 -115.893,85.038 -156.764,90.218"
       style="fill:none;stroke-width:14px;stroke-miterlimit:1.41421;stroke:#000;"
       id="path4697" /><path
       d="M490.43,212.671c-0.142,12.4 0.054,33.203 -3.158,51.712"
       style="fill:none;stroke-width:14px;stroke-miterlimit:1.41421;stroke:#000;"
       id="path4699" /><path
       d="M130.652,238.527c0,6.64 3.083,22.064 3.816,25.856"
       style="fill:none;stroke-width:14px;stroke-miterlimit:1.41421;stroke:#000;"
       id="path4701" /></g><defs
     id="defs4703"><radialGradient
       id="_Radial1"
       cx="0"
       cy="0"
       r="1"
       gradientUnits="userSpaceOnUse"
       gradientTransform="matrix(343.263,-322.889,260.567,177.106,435.584,1049.84)"><stop
         offset="0%"
         style="stop-color:#2531dc;stop-opacity:1"
         id="stop4706" /><stop
         offset="100%"
         style="stop-color:#969bee;stop-opacity:1"
         id="stop4708" /></radialGradient><radialGradient
       id="_Radial2"
       cx="0"
       cy="0"
       r="1"
       gradientUnits="userSpaceOnUse"
       gradientTransform="matrix(559.906,-349.895,260.012,416.073,468.819,760.223)"><stop
         offset="0%"
         style="stop-color:#2531dc;stop-opacity:1"
         id="stop4711" /><stop
         offset="100%"
         style="stop-color:#969bee;stop-opacity:1"
         id="stop4713" /></radialGradient><linearGradient
       id="_Linear3"
       x1="0"
       y1="0"
       x2="1"
       y2="0"
       gradientUnits="userSpaceOnUse"
       gradientTransform="matrix(408.857,-249.036,249.036,408.857,110.482,555.367)"><stop
         offset="0%"
         style="stop-color:#dbbb9c;stop-opacity:1"
         id="stop4716" /><stop
         offset="56%"
         style="stop-color:#d0a67c;stop-opacity:1"
         id="stop4718" /><stop
         offset="100%"
         style="stop-color:#cb9d6e;stop-opacity:1"
         id="stop4720" /><stop
         offset="100%"
         style="stop-color:#cb9d6e;stop-opacity:1"
         id="stop4722" /></linearGradient><radialGradient
       id="_Radial4"
       cx="0"
       cy="0"
       r="1"
       gradientUnits="userSpaceOnUse"
       gradientTransform="matrix(-410.417,230.957,-146.678,-260.651,477.781,94.4329)"><stop
         offset="0%"
         style="stop-color:#d7c447;stop-opacity:1"
         id="stop4725" /><stop
         offset="100%"
         style="stop-color:#e6d38c;stop-opacity:1"
         id="stop4727" /></radialGradient></defs></svg>